<mxfile host="app.diagrams.net" agent="Mozilla/5.0 (Windows NT 10.0; Win64; x64) AppleWebKit/537.36 (KHTML, like Gecko) Chrome/134.0.0.0 Safari/537.36" version="26.1.1">
  <diagram name="Strona-1" id="BRFmqmbFyZijtnbXDnsU">
    <mxGraphModel dx="1050" dy="522" grid="1" gridSize="10" guides="1" tooltips="1" connect="1" arrows="1" fold="1" page="1" pageScale="1" pageWidth="827" pageHeight="1169" math="0" shadow="0">
      <root>
        <mxCell id="0" />
        <mxCell id="1" parent="0" />
        <mxCell id="lTXvh6fufUek42JbYei4-7" value="" style="rounded=0;whiteSpace=wrap;html=1;" vertex="1" parent="1">
          <mxGeometry x="170" y="60" width="450" height="260" as="geometry" />
        </mxCell>
        <mxCell id="lTXvh6fufUek42JbYei4-11" style="edgeStyle=orthogonalEdgeStyle;rounded=0;orthogonalLoop=1;jettySize=auto;html=1;entryX=0.5;entryY=1;entryDx=0;entryDy=0;" edge="1" parent="1" source="lTXvh6fufUek42JbYei4-4" target="lTXvh6fufUek42JbYei4-5">
          <mxGeometry relative="1" as="geometry" />
        </mxCell>
        <mxCell id="lTXvh6fufUek42JbYei4-4" value="" style="rounded=0;whiteSpace=wrap;html=1;rotation=90;" vertex="1" parent="1">
          <mxGeometry x="202.5" y="162.5" width="160" height="75" as="geometry" />
        </mxCell>
        <mxCell id="lTXvh6fufUek42JbYei4-13" style="edgeStyle=orthogonalEdgeStyle;rounded=0;orthogonalLoop=1;jettySize=auto;html=1;entryX=0.5;entryY=1;entryDx=0;entryDy=0;" edge="1" parent="1" source="lTXvh6fufUek42JbYei4-5" target="lTXvh6fufUek42JbYei4-6">
          <mxGeometry relative="1" as="geometry">
            <Array as="points">
              <mxPoint x="420" y="200" />
              <mxPoint x="420" y="200" />
            </Array>
          </mxGeometry>
        </mxCell>
        <mxCell id="lTXvh6fufUek42JbYei4-15" style="edgeStyle=orthogonalEdgeStyle;rounded=0;orthogonalLoop=1;jettySize=auto;html=1;entryX=0.5;entryY=0;entryDx=0;entryDy=0;" edge="1" parent="1" source="lTXvh6fufUek42JbYei4-5" target="lTXvh6fufUek42JbYei4-4">
          <mxGeometry relative="1" as="geometry" />
        </mxCell>
        <mxCell id="lTXvh6fufUek42JbYei4-5" value="" style="rounded=0;whiteSpace=wrap;html=1;rotation=90;" vertex="1" parent="1">
          <mxGeometry x="320" y="165" width="160" height="70" as="geometry" />
        </mxCell>
        <mxCell id="lTXvh6fufUek42JbYei4-14" style="edgeStyle=orthogonalEdgeStyle;rounded=0;orthogonalLoop=1;jettySize=auto;html=1;entryX=0.5;entryY=0;entryDx=0;entryDy=0;" edge="1" parent="1" source="lTXvh6fufUek42JbYei4-6" target="lTXvh6fufUek42JbYei4-5">
          <mxGeometry relative="1" as="geometry" />
        </mxCell>
        <mxCell id="lTXvh6fufUek42JbYei4-6" value="" style="rounded=0;whiteSpace=wrap;html=1;rotation=90;align=left;" vertex="1" parent="1">
          <mxGeometry x="440" y="165" width="160" height="70" as="geometry" />
        </mxCell>
        <mxCell id="lTXvh6fufUek42JbYei4-8" value="ReactJS" style="rounded=0;whiteSpace=wrap;html=1;" vertex="1" parent="1">
          <mxGeometry x="252.5" y="170" width="60" height="100" as="geometry" />
        </mxCell>
        <mxCell id="lTXvh6fufUek42JbYei4-9" value="Geoserver" style="rounded=0;whiteSpace=wrap;html=1;" vertex="1" parent="1">
          <mxGeometry x="370" y="170" width="60" height="100" as="geometry" />
        </mxCell>
        <mxCell id="lTXvh6fufUek42JbYei4-10" value="Postigs" style="rounded=0;whiteSpace=wrap;html=1;" vertex="1" parent="1">
          <mxGeometry x="490" y="170" width="60" height="100" as="geometry" />
        </mxCell>
        <mxCell id="lTXvh6fufUek42JbYei4-19" style="edgeStyle=orthogonalEdgeStyle;rounded=0;orthogonalLoop=1;jettySize=auto;html=1;" edge="1" parent="1" source="lTXvh6fufUek42JbYei4-16" target="lTXvh6fufUek42JbYei4-4">
          <mxGeometry relative="1" as="geometry" />
        </mxCell>
        <mxCell id="lTXvh6fufUek42JbYei4-16" value="Actor" style="shape=umlActor;verticalLabelPosition=bottom;verticalAlign=top;html=1;outlineConnect=0;" vertex="1" parent="1">
          <mxGeometry x="40" y="110" width="30" height="60" as="geometry" />
        </mxCell>
        <mxCell id="lTXvh6fufUek42JbYei4-20" style="edgeStyle=orthogonalEdgeStyle;rounded=0;orthogonalLoop=1;jettySize=auto;html=1;entryX=1;entryY=0.5;entryDx=0;entryDy=0;" edge="1" parent="1" source="lTXvh6fufUek42JbYei4-17" target="lTXvh6fufUek42JbYei4-5">
          <mxGeometry relative="1" as="geometry" />
        </mxCell>
        <mxCell id="lTXvh6fufUek42JbYei4-21" style="edgeStyle=orthogonalEdgeStyle;rounded=0;orthogonalLoop=1;jettySize=auto;html=1;entryX=1;entryY=0.5;entryDx=0;entryDy=0;" edge="1" parent="1" source="lTXvh6fufUek42JbYei4-17" target="lTXvh6fufUek42JbYei4-6">
          <mxGeometry relative="1" as="geometry">
            <Array as="points">
              <mxPoint x="520" y="390" />
            </Array>
          </mxGeometry>
        </mxCell>
        <mxCell id="lTXvh6fufUek42JbYei4-17" value="Actor" style="shape=umlActor;verticalLabelPosition=bottom;verticalAlign=top;html=1;outlineConnect=0;" vertex="1" parent="1">
          <mxGeometry x="40" y="350" width="30" height="60" as="geometry" />
        </mxCell>
      </root>
    </mxGraphModel>
  </diagram>
</mxfile>
